<svg width="187" height="55" viewBox="0 0 187 55" fill="none" xmlns="http://www.w3.org/2000/svg">
<rect x="0.0141602" y="17" width="6.0232" height="38" fill="#D9D9D9"/>
<rect x="96.3851" y="17" width="6.0232" height="38" fill="#D9D9D9"/>
<rect x="36.1531" y="26" width="6.0232" height="29" fill="#D9D9D9"/>
<rect x="132.524" y="26" width="6.0232" height="29" fill="#D9D9D9"/>
<rect x="72.2924" y="36" width="6.0232" height="19" fill="#D9D9D9"/>
<rect x="168.664" y="36" width="6.0232" height="19" fill="#D9D9D9"/>
<rect x="84.3387" y="53" width="6.0232" height="2" fill="#D9D9D9"/>
<rect x="180.71" y="53" width="6.0232" height="2" fill="#D9D9D9"/>
<rect x="60.246" y="47" width="6.0232" height="8" fill="#D9D9D9"/>
<rect x="156.617" y="47" width="6.0232" height="8" fill="#D9D9D9"/>
<rect x="12.0603" y="11" width="6.0232" height="44" fill="#D9D9D9"/>
<rect x="108.432" y="11" width="6.0232" height="44" fill="#D9D9D9"/>
<rect x="48.1995" y="11" width="6.0232" height="44" fill="#D9D9D9"/>
<rect x="144.571" y="11" width="6.0232" height="44" fill="#D9D9D9"/>
<rect x="24.1068" width="6.0232" height="55" fill="#D9D9D9"/>
<rect x="120.478" width="6.0232" height="55" fill="#D9D9D9"/>
</svg>
