<svg width="19" height="18" viewBox="0 0 19 18" fill="none" xmlns="http://www.w3.org/2000/svg">
<path fill-rule="evenodd" clip-rule="evenodd" d="M3.8499 4.99999C3.8499 3.2603 5.26021 1.84999 6.9999 1.84999C8.7396 1.84999 10.1499 3.2603 10.1499 4.99999C10.1499 6.73969 8.7396 8.14999 6.9999 8.14999C5.26021 8.14999 3.8499 6.73969 3.8499 4.99999ZM6.9999 0.149994C4.32132 0.149994 2.1499 2.32141 2.1499 4.99999C2.1499 7.67858 4.32132 9.84999 6.9999 9.84999C9.67848 9.84999 11.8499 7.67858 11.8499 4.99999C11.8499 2.32141 9.67848 0.149994 6.9999 0.149994ZM1.8499 14.9167C1.8499 14.5136 2.17855 13.9979 3.21827 13.5388C4.2078 13.1018 5.58414 12.85 6.9999 12.85C8.39561 12.85 9.77079 13.1431 10.7678 13.6047C11.2668 13.8357 11.6327 14.0912 11.8629 14.3378C12.0845 14.5752 12.1475 14.7656 12.1498 14.9085C12.1418 14.93 12.105 14.9981 11.9626 15.1088C11.7442 15.2786 11.3796 15.4616 10.8649 15.627C9.84447 15.9549 8.4362 16.15 6.9999 16.15C5.3014 16.15 3.90326 15.9521 2.9612 15.6316C2.48754 15.4704 2.18096 15.2955 2.00759 15.1425C1.84883 15.0024 1.84976 14.9286 1.8499 14.9174L1.8499 14.9167ZM12.1518 14.901C12.152 14.901 12.1518 14.903 12.1505 14.9068C12.1509 14.9029 12.1516 14.901 12.1518 14.901ZM6.9999 11.15C5.41567 11.15 3.792 11.427 2.53154 11.9837C1.32125 12.5181 0.149902 13.4607 0.149902 14.9167C0.149902 15.5456 0.467454 16.0507 0.882837 16.4172C1.2876 16.7744 1.82476 17.0406 2.4136 17.241C3.59654 17.6435 5.1984 17.85 6.9999 17.85C8.5636 17.85 10.1553 17.6406 11.385 17.2455C11.9952 17.0494 12.5682 16.7913 13.0059 16.451C13.4403 16.1133 13.8499 15.6034 13.8499 14.9167C13.8499 14.2271 13.536 13.6389 13.1057 13.1778C12.6796 12.7213 12.108 12.3518 11.482 12.062C10.229 11.4819 8.6042 11.15 6.9999 11.15ZM13.1538 8.91846C13.1989 8.45119 13.6142 8.10888 14.0814 8.15391C15.2956 8.27092 16.4221 8.58653 17.2733 9.07878C18.0977 9.55548 18.8499 10.32 18.8499 11.3733C18.8499 11.9192 18.641 12.417 18.2348 12.8126C17.8518 13.1855 17.3291 13.4349 16.7317 13.6043C16.2801 13.7323 15.8102 13.47 15.6821 13.0183C15.5541 12.5667 15.8164 12.0968 16.2681 11.9687C16.7157 11.8418 16.9429 11.6978 17.0487 11.5947C17.1313 11.5143 17.1499 11.4536 17.1499 11.3733C17.1499 11.2166 17.0327 10.9034 16.4223 10.5504C15.8388 10.213 14.9652 9.94696 13.9184 9.84608C13.4511 9.80105 13.1088 9.38574 13.1538 8.91846ZM14.9999 0.149994C14.5305 0.149994 14.1499 0.530552 14.1499 0.999994C14.1499 1.46944 14.5305 1.84999 14.9999 1.84999C15.9112 1.84999 16.6499 2.58872 16.6499 3.49999C16.6499 4.41126 15.9112 5.14999 14.9999 5.14999C14.5305 5.14999 14.1499 5.53055 14.1499 5.99999C14.1499 6.46944 14.5305 6.84999 14.9999 6.84999C16.8501 6.84999 18.3499 5.35015 18.3499 3.49999C18.3499 1.64984 16.8501 0.149994 14.9999 0.149994Z" fill="#000A12"/>
</svg>
