<svg width="18" height="19" viewBox="0 0 18 19" fill="none" xmlns="http://www.w3.org/2000/svg">
<path fill-rule="evenodd" clip-rule="evenodd" d="M2.71419 1.84999C2.51304 1.84999 2.30131 1.93731 2.13143 2.12448C1.95907 2.3144 1.8499 2.58818 1.8499 2.88888V16.1111C1.8499 16.4118 1.95907 16.6856 2.13143 16.8755C2.30131 17.0627 2.51304 17.15 2.71419 17.15H12.1499V8.99999V2.88888C12.1499 2.58818 12.0407 2.3144 11.8684 2.12448C11.6985 1.93731 11.4868 1.84999 11.2856 1.84999H2.71419ZM2.71419 18.85H12.9999H14.9999C15.7558 18.85 16.4807 18.5497 17.0152 18.0152C17.5496 17.4808 17.8499 16.7559 17.8499 16V8.99999C17.8499 8.53055 17.4693 8.14999 16.9999 8.14999H13.8499V2.88888C13.8499 2.18766 13.5978 1.50055 13.1272 0.981991C12.6541 0.460697 11.9938 0.149994 11.2856 0.149994H2.71419C2.00603 0.149994 1.34569 0.460697 0.872577 0.981991C0.401956 1.50055 0.149902 2.18766 0.149902 2.88888V16.1111C0.149902 16.8123 0.401956 17.4994 0.872577 18.018C1.34568 18.5393 2.00603 18.85 2.71419 18.85ZM13.8499 17.15V9.84999H16.1499V16C16.1499 16.305 16.0287 16.5975 15.8131 16.8132C15.5974 17.0288 15.3049 17.15 14.9999 17.15H13.8499ZM4.9999 5.14999C4.53046 5.14999 4.1499 5.53055 4.1499 5.99999C4.1499 6.46944 4.53046 6.84999 4.9999 6.84999H8.9999C9.46935 6.84999 9.8499 6.46944 9.8499 5.99999C9.8499 5.53055 9.46935 5.14999 8.9999 5.14999H4.9999ZM4.1499 8.99999C4.1499 8.53055 4.53046 8.14999 4.9999 8.14999H8.9999C9.46935 8.14999 9.8499 8.53055 9.8499 8.99999C9.8499 9.46944 9.46935 9.84999 8.9999 9.84999H4.9999C4.53046 9.84999 4.1499 9.46944 4.1499 8.99999ZM4.9999 12.15C4.53046 12.15 4.1499 12.5306 4.1499 13C4.1499 13.4694 4.53046 13.85 4.9999 13.85H7.9999C8.46934 13.85 8.8499 13.4694 8.8499 13C8.8499 12.5306 8.46934 12.15 7.9999 12.15H4.9999Z" fill="#7C8DB5"/>
</svg>
