<svg width="20" height="20" viewBox="0 0 20 20" fill="none" xmlns="http://www.w3.org/2000/svg">
<path fill-rule="evenodd" clip-rule="evenodd" d="M1.8499 9.99999C1.8499 5.49887 5.49878 1.84999 9.9999 1.84999C10.8908 1.84999 11.7467 1.99263 12.547 2.25567C12.993 2.40225 13.4733 2.15955 13.6199 1.71358C13.7665 1.26761 13.5238 0.787252 13.0778 0.640669C12.1084 0.322025 11.0734 0.149994 9.9999 0.149994C4.5599 0.149994 0.149902 4.55999 0.149902 9.99999C0.149902 15.44 4.5599 19.85 9.9999 19.85C15.4399 19.85 19.8499 15.44 19.8499 9.99999C19.8499 9.53055 19.4693 9.14999 18.9999 9.14999C18.5305 9.14999 18.1499 9.53055 18.1499 9.99999C18.1499 14.5011 14.501 18.15 9.9999 18.15C5.49878 18.15 1.8499 14.5011 1.8499 9.99999ZM17.6022 5.59973C17.9335 5.26706 17.9323 4.72888 17.5996 4.39765C17.267 4.06643 16.7288 4.06759 16.3976 4.40026L10.0495 10.7759L7.62083 8.17804C7.30024 7.83511 6.76236 7.817 6.41943 8.13759C6.0765 8.45818 6.05839 8.99606 6.37898 9.33899L9.40928 12.5805C9.56684 12.749 9.78614 12.8463 10.0168 12.8499C10.2475 12.8535 10.4698 12.7632 10.6325 12.5997L17.6022 5.59973Z" fill="#000A12"/>
</svg>
