<svg width="36" height="35" viewBox="0 0 44 43" fill="none" xmlns="http://www.w3.org/2000/svg">
<path fill-rule="evenodd" clip-rule="evenodd" d="M20.9339 0L21.0471 0.000299594V1.35822C21.0094 1.358 20.9717 1.35789 20.9339 1.35789C10.16 1.35789 1.41882 10.0614 1.35792 20.8211H0C0.0609166 9.31147 9.41001 0 20.9339 0Z" fill="#EB5757"/>
<path fill-rule="evenodd" clip-rule="evenodd" d="M22.5182 0L22.4051 0.00029923V1.35821C22.4428 1.358 22.4805 1.35789 22.5182 1.35789C33.2922 1.35789 42.0333 10.0614 42.0942 20.8211H43.4521C43.3912 9.31147 34.0421 0 22.5182 0Z" fill="black"/>
<path fill-rule="evenodd" clip-rule="evenodd" d="M20.9339 43L21.0471 42.9997V41.6418C21.0094 41.642 20.9717 41.6421 20.9339 41.6421C10.16 41.6421 1.41882 32.9386 1.35792 22.1789H0C0.0609166 33.6885 9.41001 43 20.9339 43Z" fill="black"/>
<path fill-rule="evenodd" clip-rule="evenodd" d="M22.5182 43L22.4051 42.9997V41.6418C22.4428 41.642 22.4805 41.6421 22.5182 41.6421C33.2922 41.6421 42.0333 32.9386 42.0942 22.1789H43.4521C43.3912 33.6885 34.0421 43 22.5182 43Z" fill="#27AE60"/>
<path d="M8 31.5L13.5 21L26 34L32 11" stroke="black" stroke-width="3"/>
<path d="M25 13.5L33.5 9L35.5 17.5" stroke="black" stroke-width="3"/>
</svg>
