<svg width="20" height="18" viewBox="0 0 20 18" fill="none" xmlns="http://www.w3.org/2000/svg">
<path fill-rule="evenodd" clip-rule="evenodd" d="M13.6009 0.398953C13.269 0.0670075 12.7308 0.0670075 12.3989 0.398953C12.0669 0.730899 12.0669 1.26909 12.3989 1.60103L16.9478 6.14999H5.9999C4.44839 6.14999 2.96042 6.76633 1.86333 7.86342C0.76624 8.96051 0.149902 10.4485 0.149902 12C0.149902 13.5515 0.76624 15.0395 1.86333 16.1366C2.96042 17.2337 4.44839 17.85 5.9999 17.85H12.9999C13.4693 17.85 13.8499 17.4694 13.8499 17C13.8499 16.5306 13.4693 16.15 12.9999 16.15H5.9999C4.89925 16.15 3.84369 15.7128 3.06541 14.9345C2.28713 14.1562 1.8499 13.1006 1.8499 12C1.8499 10.8993 2.28713 9.84378 3.06541 9.0655C3.84369 8.28722 4.89925 7.84999 5.9999 7.84999H16.9478L12.3989 12.399C12.0669 12.7309 12.0669 13.2691 12.3989 13.601C12.7308 13.933 13.269 13.933 13.6009 13.601L19.6009 7.60103C19.9329 7.26909 19.9329 6.7309 19.6009 6.39895L13.6009 0.398953Z" fill="#000A12"/>
</svg>
