<svg width="20" height="20" viewBox="0 0 20 20" fill="none" xmlns="http://www.w3.org/2000/svg">
<path fill-rule="evenodd" clip-rule="evenodd" d="M1.85002 10C1.85002 5.4989 5.4989 1.85002 10 1.85002C10.8909 1.85002 11.7468 1.99266 12.5471 2.2557C12.9931 2.40228 13.4734 2.15958 13.62 1.71361C13.7666 1.26764 13.5239 0.787283 13.0779 0.6407C12.1085 0.322055 11.0735 0.150024 10 0.150024C4.56002 0.150024 0.150024 4.56002 0.150024 10C0.150024 15.44 4.56002 19.85 10 19.85C15.44 19.85 19.85 15.44 19.85 10C19.85 9.53058 19.4695 9.15002 19 9.15002C18.5306 9.15002 18.15 9.53058 18.15 10C18.15 14.5011 14.5011 18.15 10 18.15C5.4989 18.15 1.85002 14.5011 1.85002 10Z" fill="#000A12"/>
</svg>
