<svg width="20" height="21" viewBox="0 0 20 21" fill="none" xmlns="http://www.w3.org/2000/svg">
<path fill-rule="evenodd" clip-rule="evenodd" d="M4.60531 5.51378C6.19349 6.05875 7.8568 4.9649 8.15228 3.45575C8.33394 2.6714 8.54716 2.3284 8.7587 2.15285C8.9629 1.9834 9.31124 1.84999 10.068 1.84999C10.6537 1.84999 10.986 1.99729 11.2031 2.2013C11.4367 2.42073 11.6531 2.81471 11.783 3.52742L11.783 3.52742L11.7839 3.53188C11.9392 4.35915 12.5088 4.98299 13.1708 5.3281C13.8347 5.67419 14.6676 5.78319 15.4528 5.50676C15.4637 5.50292 15.4745 5.49885 15.4853 5.49457C16.2385 5.19431 16.6478 5.20024 16.8979 5.28468C17.1438 5.36773 17.4258 5.5908 17.7748 6.18204C18.1315 6.78636 18.1784 7.1088 18.1375 7.32686C18.0946 7.55514 17.9136 7.8927 17.2771 8.42088L17.2655 8.43072C15.9883 9.52985 15.9883 11.4701 17.2655 12.5693L17.2771 12.5791C17.9136 13.1073 18.0946 13.4448 18.1375 13.6731C18.1784 13.8912 18.1315 14.2136 17.7748 14.8179C17.4278 15.4058 17.1415 15.6392 16.8818 15.7328C16.6165 15.8283 16.1993 15.8428 15.4486 15.5868C13.9257 15.0535 12.076 15.9607 11.7816 17.6708C11.6508 18.4305 11.4404 18.7311 11.2525 18.8767C11.0498 19.0337 10.6967 19.15 9.96989 19.15C9.27027 19.15 8.91026 19.0198 8.6987 18.8501C8.49371 18.6856 8.28608 18.3694 8.15738 17.6662C7.86046 15.9591 6.01269 15.054 4.4912 15.5867C3.74043 15.8428 3.32324 15.8283 3.05802 15.7328C2.79828 15.6392 2.51197 15.4058 2.16498 14.8179C2.16023 14.8099 2.15534 14.8019 2.15033 14.794C1.84527 14.3141 1.81336 13.9815 1.87794 13.7201C1.95052 13.4262 2.18739 13.0489 2.75663 12.5825L2.77243 12.5693C4.07165 11.4512 3.92896 9.51335 2.67797 8.52704C2.11037 7.97074 1.93316 7.61707 1.89198 7.36078C1.85278 7.11685 1.90908 6.78512 2.25588 6.19432C2.57394 5.6978 2.86752 5.48716 3.15509 5.39857C3.46386 5.30346 3.90798 5.3048 4.60531 5.51378ZM10.068 0.149994C9.15665 0.149994 8.32748 0.301589 7.67309 0.844634C7.02732 1.38052 6.70217 2.17439 6.49204 3.08984C6.48951 3.10088 6.4872 3.11197 6.48511 3.12311C6.37905 3.68781 5.70753 4.09964 5.14963 3.90323C5.13768 3.89902 5.12564 3.89508 5.11351 3.89141C4.25 3.63016 3.4229 3.53725 2.65462 3.77391C1.86505 4.01714 1.27784 4.5639 0.813752 5.29402C0.808736 5.30192 0.80385 5.30989 0.799097 5.31794C0.367339 6.04945 0.081249 6.80732 0.213505 7.63046C0.343255 8.438 0.846859 9.12064 1.52862 9.78068C1.55383 9.80509 1.58052 9.82791 1.60855 9.84901C2.07852 10.2029 2.11421 10.8861 1.66988 11.2752C0.96806 11.8521 0.423928 12.5173 0.227541 13.3124C0.0233684 14.139 0.233426 14.9423 0.707994 15.6939C1.14484 16.4308 1.69099 17.0473 2.48185 17.3322C3.2711 17.6165 4.12873 17.5071 5.04408 17.1943L5.0441 17.1944L5.05151 17.1918C5.68659 16.9682 6.38498 17.3908 6.48282 17.9592L6.48278 17.9592L6.48428 17.9674C6.65001 18.8766 6.98171 19.6521 7.63496 20.1762C8.282 20.6952 9.09949 20.85 9.96989 20.85C10.8131 20.85 11.6374 20.7288 12.2934 20.2208C12.964 19.7013 13.2934 18.9095 13.457 17.9592C13.5548 17.3908 14.2532 16.9682 14.8883 17.1918L14.8883 17.1918L14.8957 17.1943C15.811 17.5071 16.6687 17.6165 17.4579 17.3322C18.253 17.0458 18.8008 16.4242 19.2388 15.682C19.6671 14.9564 19.9636 14.1863 19.8083 13.3594C19.6554 12.5452 19.1034 11.8868 18.3695 11.2765C17.8869 10.8565 17.8869 10.1435 18.3695 9.72345C19.1034 9.11322 19.6554 8.45483 19.8083 7.64063C19.9636 6.81368 19.6671 6.04363 19.2388 5.31794C18.8028 4.57918 18.2508 3.94726 17.4418 3.67406C16.6426 3.40414 15.7827 3.54864 14.8748 3.90785C14.5836 4.00575 14.245 3.97098 13.9567 3.82064C13.6627 3.66739 13.4964 3.43702 13.455 3.21978C13.2904 2.31864 12.9672 1.52618 12.3673 0.962435C11.7503 0.382698 10.9542 0.149994 10.068 0.149994ZM7.84995 10.5C7.84995 9.31258 8.81254 8.34999 9.99995 8.34999C11.1874 8.34999 12.15 9.31258 12.15 10.5C12.15 11.6874 11.1874 12.65 9.99995 12.65C8.81254 12.65 7.84995 11.6874 7.84995 10.5ZM9.99995 6.64999C7.87366 6.64999 6.14995 8.3737 6.14995 10.5C6.14995 12.6263 7.87366 14.35 9.99995 14.35C12.1263 14.35 13.85 12.6263 13.85 10.5C13.85 8.3737 12.1263 6.64999 9.99995 6.64999Z" fill="#7C8DB5"/>
</svg>
